<?xml version="1.0" standalone="no"?>
<!DOCTYPE svg PUBLIC "-//W3C//DTD SVG 20010904//EN"
 "http://www.w3.org/TR/2001/REC-SVG-20010904/DTD/svg10.dtd">
<svg version="1.0" xmlns="http://www.w3.org/2000/svg"
 width="1024.000000pt" height="1024.000000pt" viewBox="0 0 1024.000000 1024.000000"
 preserveAspectRatio="xMidYMid meet">
<metadata>
Created by potrace 1.14, written by Peter Selinger 2001-2017
</metadata>
<g transform="translate(0.000000,1024.000000) scale(0.100000,-0.100000)"
fill="#000000" stroke="none">
<path d="M4900 10067 c-13 -7 -35 -30 -47 -52 -34 -61 -115 -314 -112 -350 2
-19 -3 -39 -13 -48 -18 -18 -23 -49 -39 -244 -9 -108 -9 -149 -1 -168 9 -19 8
-43 -3 -102 -8 -43 -18 -113 -21 -156 -6 -63 -11 -80 -26 -88 -36 -19 -49 -76
-60 -243 -13 -225 -16 -240 -45 -283 -14 -21 -32 -55 -39 -75 -17 -50 -71
-128 -89 -128 -21 0 -102 -97 -116 -138 -6 -20 -22 -47 -35 -58 -20 -19 -29
-48 -37 -114 -1 -8 -30 -28 -63 -45 -34 -16 -76 -42 -94 -57 -17 -16 -40 -28
-50 -28 -10 0 -21 -4 -24 -9 -4 -5 -30 -12 -59 -16 -28 -4 -83 -19 -122 -35
-38 -15 -108 -37 -155 -49 -93 -25 -110 -34 -129 -70 -10 -17 -15 -20 -21 -11
-6 10 -25 9 -94 -5 -48 -10 -89 -22 -92 -27 -3 -4 -18 -8 -35 -8 -20 0 -29 -5
-29 -16 0 -12 -6 -10 -21 10 -24 30 -44 34 -36 7 4 -16 -3 -19 -42 -24 -88
-11 -123 -36 -225 -162 -49 -61 -111 -105 -157 -113 -42 -7 -43 -8 -54 -63
-15 -78 -32 -99 -133 -168 -48 -33 -97 -71 -109 -85 -14 -16 -37 -27 -66 -31
-39 -6 -53 -16 -133 -102 -114 -123 -154 -179 -154 -216 0 -23 -15 -46 -66
-99 -64 -68 -87 -106 -98 -160 -4 -15 -15 -30 -27 -33 -11 -4 -35 -20 -54 -36
-32 -28 -44 -54 -59 -121 -4 -19 -13 -28 -26 -28 -12 0 -26 -13 -36 -32 -9
-18 -23 -40 -30 -49 -19 -21 -64 -156 -64 -190 0 -14 -6 -32 -14 -38 -7 -6
-34 -47 -60 -91 -25 -44 -53 -80 -60 -80 -8 0 -17 -9 -21 -20 -3 -11 -19 -29
-35 -40 -33 -24 -45 -56 -60 -164 -5 -43 -22 -106 -36 -140 -14 -33 -29 -80
-33 -104 -5 -24 -19 -55 -33 -70 -34 -36 -88 -122 -88 -141 0 -8 7 -22 16 -32
14 -16 14 -18 -4 -28 -37 -20 -75 -178 -53 -219 8 -15 7 -27 -4 -49 -8 -15
-15 -24 -15 -19 0 5 -11 -1 -25 -14 -67 -63 -91 -315 -40 -434 9 -22 20 -89
26 -155 4 -64 9 -117 9 -117 0 -1 8 -4 18 -6 15 -4 20 -19 25 -75 6 -80 31
-150 55 -156 10 -3 6 -5 -9 -6 -25 -1 -26 -4 -33 -81 -7 -85 -21 -130 -42
-130 -6 0 -15 -11 -18 -24 -4 -16 -27 -37 -65 -60 -32 -20 -80 -61 -106 -91
-35 -42 -53 -55 -74 -55 -20 0 -31 -7 -39 -25 -6 -13 -28 -33 -49 -43 -21 -10
-78 -43 -126 -73 -75 -45 -87 -56 -83 -74 9 -34 -14 -54 -71 -65 -30 -5 -86
-29 -130 -55 -43 -25 -82 -45 -87 -45 -5 0 -27 -20 -50 -45 -41 -43 -45 -45
-99 -45 -46 0 -58 -4 -67 -20 -15 -28 -16 -190 -2 -217 7 -12 12 -42 12 -67
l0 -46 59 0 c33 0 63 -4 66 -10 11 -18 45 -11 54 12 5 14 10 17 15 10 5 -8 43
-12 112 -12 97 0 108 2 157 30 30 16 65 30 79 30 14 0 31 7 38 15 7 8 23 15
36 15 28 0 315 56 361 71 17 5 50 30 72 54 35 38 41 51 42 92 1 40 2 43 8 18
6 -30 7 -30 79 -33 69 -3 72 -4 72 -27 0 -33 36 -128 62 -160 11 -15 31 -30
44 -35 21 -8 23 -14 17 -58 -5 -46 -4 -50 32 -83 20 -19 52 -58 71 -87 48 -74
215 -240 251 -248 33 -8 55 -23 48 -34 -2 -4 4 -15 15 -25 11 -10 20 -24 20
-31 0 -34 136 -154 175 -154 14 0 26 -7 30 -19 3 -10 49 -60 102 -112 l96 -93
-5 -238 c-5 -232 -6 -238 -30 -275 -37 -57 -48 -98 -48 -182 0 -71 -2 -77 -32
-109 l-33 -33 -3 -176 c-5 -223 -1 -248 43 -296 l35 -39 134 4 c128 3 134 4
170 32 21 15 41 38 46 50 55 133 71 184 65 212 -6 37 31 146 70 206 14 21 25
40 25 43 0 3 18 48 41 100 22 52 44 121 49 152 6 32 19 69 30 83 37 46 64 105
69 150 5 40 9 45 34 48 16 2 30 9 33 16 3 8 19 -1 46 -26 44 -41 62 -46 87
-25 10 9 25 11 41 6 24 -7 24 -7 3 -8 -13 -1 -23 -5 -23 -10 0 -14 77 -79 160
-135 62 -42 75 -48 91 -38 17 11 19 9 19 -13 0 -18 5 -25 19 -25 10 0 31 -16
45 -35 36 -47 122 -72 302 -90 103 -10 153 -19 183 -34 22 -12 48 -21 58 -21
10 0 29 -7 41 -16 16 -11 44 -15 100 -14 42 1 84 1 93 1 9 -1 34 -15 55 -31
27 -22 47 -30 68 -28 19 2 36 -3 43 -12 9 -12 16 -12 30 -4 14 9 20 8 30 -5
10 -14 41 -16 223 -18 160 -1 215 -4 227 -15 21 -17 536 -18 673 -1 52 7 181
15 285 18 127 5 200 11 220 20 17 8 105 50 196 94 92 45 190 86 218 92 28 6
58 17 65 25 8 8 18 14 21 14 4 0 22 13 41 29 19 17 60 37 93 47 34 9 66 23 72
30 6 8 18 14 26 14 20 0 192 84 232 114 19 14 40 26 47 26 6 0 14 9 17 21 5
18 10 20 54 14 26 -4 55 -9 64 -11 18 -5 29 -45 29 -100 0 -43 30 -64 92 -64
40 0 53 -6 93 -40 25 -22 49 -40 53 -40 4 0 7 -26 8 -58 1 -53 36 -162 53
-162 3 0 12 -4 20 -9 11 -7 10 -13 -4 -35 -22 -34 -14 -96 20 -148 22 -32 29
-37 54 -32 23 5 29 2 34 -15 3 -12 13 -21 24 -21 13 0 38 -28 78 -90 32 -50
71 -100 87 -111 15 -11 28 -27 28 -34 0 -8 13 -21 30 -30 16 -8 37 -27 46 -40
16 -24 19 -25 145 -25 l129 0 17 34 c13 28 14 42 5 78 -7 27 -8 46 -2 52 17
17 11 108 -10 171 -73 220 -89 277 -95 350 -5 68 -11 87 -40 130 -18 28 -38
74 -45 105 -6 30 -17 65 -25 77 -20 30 -37 109 -29 138 3 14 14 25 27 27 31 4
33 46 5 88 -14 20 -32 35 -43 35 -22 0 -22 4 -6 105 6 36 11 97 11 135 0 66
-2 72 -29 96 -28 24 -29 28 -20 68 15 69 35 107 66 129 20 14 34 38 47 77 12
39 31 71 59 100 23 23 50 54 61 69 10 16 31 32 46 37 32 12 156 156 177 208 8
20 21 43 29 52 31 35 30 189 -1 189 -21 0 -18 13 5 28 11 7 20 23 20 37 0 15
13 36 35 56 l35 32 0 104 0 103 44 0 c41 0 45 2 51 30 4 17 13 44 22 61 20 40
63 251 63 310 0 26 -9 66 -20 90 -29 66 -26 115 15 197 30 60 35 80 35 139 0
37 1 97 2 133 1 73 -21 129 -53 137 -26 7 -25 11 20 52 50 47 61 95 37 164
-16 44 -16 50 -2 66 20 22 21 86 1 141 -8 23 -15 53 -15 65 0 12 7 28 15 35
22 18 20 145 -2 185 -10 19 -18 67 -22 132 -6 91 -9 103 -31 122 l-25 21 24
21 c19 16 27 37 37 101 15 89 15 89 109 139 108 57 221 136 233 163 7 15 20
26 31 26 52 0 142 89 160 158 4 15 17 32 29 38 12 6 30 18 40 27 10 10 23 17
29 17 6 0 23 16 37 35 15 19 33 35 41 35 7 0 35 17 62 38 77 61 118 82 157 82
30 0 38 5 46 25 5 14 15 25 21 25 6 0 24 11 39 23 17 15 47 26 78 30 60 7 138
45 190 91 20 18 47 38 60 45 21 11 22 18 22 126 0 122 -8 158 -37 170 -10 4
-75 10 -145 13 -114 4 -131 3 -165 -15 -22 -12 -58 -24 -82 -28 -40 -7 -237
-75 -271 -94 -8 -4 -18 -19 -21 -32 -4 -13 -7 -18 -8 -11 -1 15 -33 16 -48 1
-8 -8 -13 -8 -17 0 -4 6 -38 11 -79 11 -62 0 -74 -3 -97 -25 -19 -18 -42 -27
-78 -32 -29 -3 -52 -9 -52 -13 0 -4 -15 -10 -32 -13 -18 -2 -60 -12 -93 -20
-123 -34 -279 -46 -329 -27 -14 5 -77 12 -140 16 l-115 7 -7 44 c-7 49 -29 66
-49 40 -11 -15 -14 -16 -25 -2 -15 18 -37 20 -43 3 -3 -8 -6 -6 -6 5 -1 26
-45 109 -70 131 -12 11 -21 26 -21 35 0 9 -14 34 -30 55 -17 22 -30 45 -30 52
0 17 -89 105 -130 129 -19 11 -51 42 -70 68 -33 44 -38 47 -81 47 -56 0 -75
13 -92 65 -10 30 -20 41 -38 43 -26 4 -109 82 -109 102 0 6 -9 23 -20 37 -11
14 -20 38 -20 54 0 37 -30 64 -94 85 -46 15 -90 44 -69 44 4 0 1 6 -9 13 -9 7
-18 24 -20 37 -4 32 -108 86 -191 100 -40 6 -70 19 -96 40 -22 16 -46 30 -55
30 -9 0 -16 4 -16 9 0 11 -60 22 -112 21 -30 0 -46 8 -88 45 -28 25 -55 45
-59 45 -5 0 -28 16 -51 35 -23 19 -52 35 -64 35 -12 0 -32 7 -45 16 -13 9 -49
24 -80 33 -46 14 -57 21 -59 42 -6 38 -18 46 -89 59 -65 13 -93 30 -118 74
-19 34 -186 61 -213 34 -9 -9 -17 -9 -35 1 -19 10 -36 10 -86 0 -66 -13 -175
-8 -228 11 -38 14 -50 42 -56 135 -4 77 -26 130 -57 140 -18 6 -20 15 -20 96
0 49 -4 89 -9 89 -4 0 -11 30 -13 68 -6 72 -41 166 -76 198 -18 17 -21 34 -24
137 -3 116 -4 119 -30 139 -18 12 -28 29 -28 44 0 31 -34 99 -70 141 -20 22
-30 47 -34 85 -11 87 -27 158 -35 158 -5 0 -11 34 -14 75 -8 85 -38 241 -66
332 -21 68 -69 152 -88 153 -21 0 -26 23 -8 36 26 19 12 76 -26 108 -35 29
-44 31 -79 13z m2430 -2901 c0 -3 -4 -8 -10 -11 -5 -3 -10 -1 -10 4 0 6 5 11
10 11 6 0 10 -2 10 -4z m-2373 -240 c0 -53 27 -104 71 -131 17 -11 34 -29 38
-40 4 -11 11 -25 16 -32 5 -7 11 -43 12 -80 4 -91 40 -246 70 -297 13 -23 36
-52 50 -65 21 -19 23 -27 15 -43 -20 -37 17 -148 62 -191 10 -10 22 -30 25
-45 3 -15 24 -66 46 -114 22 -48 52 -133 68 -189 16 -56 35 -111 43 -123 8
-11 20 -38 26 -59 7 -20 17 -35 22 -32 5 4 9 2 9 -3 0 -6 16 -33 35 -62 19
-28 39 -70 45 -93 6 -23 20 -72 31 -109 14 -46 18 -79 13 -105 -17 -94 -55
-120 -189 -126 -76 -3 -107 -11 -200 -47 -134 -52 -138 -55 -131 -94 6 -31 6
-31 -9 -8 -20 28 -29 28 -69 -3 -18 -14 -38 -25 -44 -25 -10 0 -112 -30 -162
-47 -8 -3 -24 -7 -35 -9 -113 -16 -176 -30 -268 -60 -67 -21 -145 -38 -209
-45 -112 -11 -122 -14 -114 -35 3 -9 -1 -14 -12 -14 -10 0 -23 -5 -28 -10 -8
-8 -15 -6 -23 4 -11 13 -9 21 10 47 14 20 24 52 27 86 2 29 8 53 13 53 5 0 9
7 9 15 0 9 11 20 24 25 58 22 89 107 61 172 -20 50 -20 54 14 66 44 16 53 44
60 184 6 122 8 128 37 165 17 21 42 59 55 83 20 38 24 42 27 23 5 -31 13 -28
40 14 20 32 23 47 21 117 -3 86 0 103 37 181 32 69 44 156 44 316 0 122 2 138
20 154 29 26 54 99 47 140 -3 19 -1 37 4 40 5 4 9 15 9 25 0 10 7 23 16 28 9
5 24 38 34 73 48 165 69 228 89 272 11 27 21 57 21 66 0 25 9 31 45 31 31 0
32 -1 32 -44z m1101 -206 c61 -70 122 -114 202 -145 35 -14 73 -32 86 -40 13
-8 30 -15 39 -15 8 0 15 -5 15 -10 0 -13 36 -27 91 -35 65 -9 76 -13 93 -40 9
-14 22 -25 30 -25 7 0 21 -10 32 -22 28 -31 134 -98 157 -98 10 0 32 -13 47
-30 15 -16 39 -34 54 -40 17 -6 26 -17 26 -30 0 -30 100 -126 155 -150 37 -16
47 -25 52 -51 4 -22 15 -35 36 -44 19 -8 37 -28 51 -56 13 -27 37 -55 64 -72
23 -16 42 -35 42 -43 0 -8 7 -14 15 -14 50 0 -29 -68 -101 -87 -79 -20 -272
-114 -287 -140 -4 -7 -21 -13 -37 -13 -18 0 -30 -5 -30 -13 0 -9 -11 -12 -34
-9 -22 3 -72 -9 -138 -31 -148 -50 -271 -88 -273 -85 -1 2 -14 25 -29 51 -25
43 -26 51 -15 84 20 61 6 137 -37 199 -21 30 -43 54 -51 54 -8 0 -13 13 -13
38 0 21 -9 50 -21 67 -11 17 -40 71 -64 120 -56 114 -126 239 -148 263 -14 16
-16 25 -7 47 17 46 2 115 -34 150 -30 29 -31 33 -37 144 -3 75 -9 116 -17 119
-23 7 -1 22 34 22 22 0 40 -7 52 -20z m-2088 -38 c0 -5 -5 -34 -11 -66 -10
-49 -10 -61 6 -90 21 -38 15 -66 -13 -66 -27 0 -39 -18 -53 -75 -6 -28 -24
-79 -40 -115 -32 -76 -48 -132 -60 -215 -4 -34 -15 -65 -24 -71 -8 -6 -15 -16
-15 -22 0 -5 -7 -12 -14 -15 -22 -9 -47 -63 -51 -111 -4 -46 -35 -111 -61
-131 -12 -9 -19 -31 -22 -76 -3 -45 -10 -69 -23 -82 -11 -10 -19 -25 -19 -35
0 -9 -14 -37 -30 -61 -26 -38 -30 -53 -30 -112 0 -49 4 -70 15 -76 12 -7 6
-25 -34 -103 -27 -52 -70 -147 -97 -210 -41 -100 -48 -128 -55 -218 -11 -138
-36 -279 -57 -322 -25 -51 -100 -89 -177 -90 -132 -1 -261 -55 -374 -156 -25
-23 -66 -51 -91 -63 -25 -12 -56 -28 -70 -36 -14 -8 -38 -15 -54 -15 -45 0
-145 -29 -213 -61 -61 -29 -143 -107 -143 -135 0 -7 -6 -11 -14 -8 -8 3 -25 0
-37 -6 l-22 -12 7 202 c6 198 7 203 37 265 28 59 30 71 28 152 -3 68 1 95 14
118 43 77 59 121 64 173 3 31 12 64 19 72 7 8 23 51 35 95 12 44 32 98 45 120
29 51 56 163 48 204 -5 24 -3 31 9 31 22 0 96 99 109 146 5 21 21 52 34 69 13
18 24 39 24 47 0 8 9 23 20 33 11 10 34 40 51 66 17 27 35 49 40 49 5 0 9 7 9
14 0 8 16 27 35 42 19 15 38 36 41 48 3 11 24 35 47 51 57 42 104 110 89 128
-14 16 -6 28 13 21 7 -3 16 -1 20 5 3 6 19 11 34 11 20 0 31 7 39 25 7 14 22
29 35 34 13 5 43 30 68 56 24 26 56 53 71 61 15 8 38 25 52 39 14 14 31 25 39
25 7 0 26 14 42 30 16 17 36 30 44 30 9 0 32 10 51 21 41 24 170 152 170 168
0 15 13 14 29 -1 10 -11 14 -10 21 3 5 9 43 28 85 44 92 33 192 97 205 129 10
26 60 49 60 28z m1635 -1210 c-3 -3 -11 0 -18 7 -9 10 -8 11 6 5 10 -3 15 -9
12 -12z m2255 -466 c0 -7 11 -18 24 -26 39 -20 85 -133 78 -190 -1 -8 -3 -73
-5 -145 -2 -94 -8 -140 -20 -165 -16 -35 -36 -321 -41 -590 -1 -82 -6 -111
-20 -132 -12 -18 -17 -43 -16 -80 3 -87 1 -94 -30 -133 -16 -21 -30 -47 -30
-59 0 -37 -29 -134 -59 -199 -15 -34 -41 -95 -56 -136 -15 -40 -41 -88 -57
-106 -38 -44 -49 -119 -23 -159 23 -35 15 -75 -28 -130 l-33 -44 -28 35 c-35
43 -83 73 -118 73 -17 0 -31 8 -38 20 -6 11 -20 20 -30 20 -24 0 -26 16 -5 36
23 24 20 118 -5 142 -11 10 -31 52 -45 92 -14 40 -32 84 -40 96 -8 13 -15 34
-15 47 0 12 -5 28 -11 34 -8 8 -8 22 0 49 15 54 14 149 -3 236 -17 88 -36 135
-72 177 -21 25 -27 44 -29 89 -2 56 -39 152 -58 152 -4 0 -15 16 -23 35 -9 22
-23 37 -39 41 -21 5 -23 8 -10 21 22 22 20 129 -4 176 -10 20 -22 53 -26 74
-11 58 -43 113 -96 164 -27 26 -49 50 -49 54 0 12 114 57 210 82 104 27 149
50 178 90 19 27 20 27 47 9 40 -26 75 -14 75 25 0 26 2 29 19 19 32 -16 86
-12 105 9 10 10 34 22 54 26 73 14 242 115 242 145 0 6 -10 10 -22 10 -17 0
-19 3 -10 12 9 9 19 7 42 -10 48 -36 70 -25 70 34 0 24 1 24 25 8 14 -9 25
-22 25 -28z m-1901 -833 c94 -70 151 -123 151 -139 0 -7 8 -20 17 -30 42 -42
66 -125 74 -259 11 -192 51 -358 90 -370 25 -8 39 -64 39 -160 0 -84 4 -97 33
-108 11 -4 17 -17 17 -36 0 -38 35 -131 61 -166 12 -14 23 -44 26 -65 3 -22 9
-40 13 -40 4 0 13 -21 19 -47 21 -81 56 -132 119 -169 1 0 7 -52 12 -114 12
-136 73 -331 114 -365 31 -25 65 -100 66 -143 0 -43 -42 -86 -97 -101 -22 -6
-54 -21 -71 -33 -17 -13 -67 -49 -111 -81 -45 -32 -81 -64 -81 -70 0 -17 -183
-81 -349 -122 -166 -41 -177 -46 -213 -88 l-26 -32 -24 23 c-42 38 -98 25 -98
-24 0 -17 -4 -21 -20 -17 -37 10 -210 -8 -225 -23 -19 -19 -25 -18 -25 7 0 19
-4 21 -32 15 -17 -3 -40 -14 -51 -24 -10 -9 -30 -15 -43 -14 -17 3 -26 -3 -32
-18 -7 -20 -9 -20 -21 -6 -17 20 -55 21 -70 2 -10 -12 -17 -12 -44 -1 -18 7
-93 20 -167 29 -74 9 -156 23 -182 31 -53 17 -200 20 -228 5 -15 -8 -20 -6
-25 9 -3 11 -20 24 -37 30 -17 6 -36 17 -42 24 -16 20 -92 45 -164 55 -55 8
-66 13 -100 49 -41 46 -100 65 -133 44 -23 -14 -59 -15 -59 -1 0 22 -40 9 -46
-15 -8 -30 -24 -23 -24 11 0 20 -5 24 -30 24 -23 0 -30 4 -30 20 0 26 -55 60
-96 60 -18 0 -76 23 -139 55 -76 39 -118 55 -146 55 -33 0 -48 7 -88 45 -69
64 -77 88 -61 183 7 42 23 104 36 136 28 69 30 92 9 112 -23 24 -19 70 9 91
21 15 28 38 50 155 29 152 46 207 76 245 11 14 20 39 20 54 0 16 4 29 9 29 5
0 17 22 26 50 9 27 21 52 26 55 5 4 9 15 9 27 0 11 12 39 26 62 14 22 43 69
64 104 22 34 42 73 45 87 3 14 7 36 10 50 3 13 28 52 56 85 39 47 52 72 56
103 8 73 12 87 27 81 20 -8 53 12 114 68 30 26 60 48 67 48 19 0 85 59 85 75
0 7 17 15 38 19 22 3 51 16 67 27 39 32 119 47 295 59 85 5 191 15 235 21 71
11 84 16 113 46 33 35 42 63 20 63 -7 0 -5 5 5 11 13 7 25 6 46 -7 25 -15 32
-15 45 -5 9 8 16 25 16 38 0 22 2 24 16 12 12 -10 20 -10 35 -1 15 10 19 9 19
-2 0 -16 27 -29 41 -20 5 3 9 12 9 20 0 14 29 18 90 15 24 -2 568 134 578 144
9 9 13 6 91 -52z m-3251 -1055 c9 -9 6 -14 -11 -22 -30 -15 -57 -74 -64 -138
-4 -45 -2 -56 16 -72 l20 -19 -34 -40 c-38 -44 -68 -122 -63 -161 2 -15 -4
-30 -14 -38 -21 -16 -38 -97 -38 -184 0 -70 -10 -79 -36 -35 -10 17 -22 27
-27 24 -6 -3 -7 -2 -4 4 9 15 -48 100 -73 108 -12 4 -25 18 -30 31 -5 13 -16
24 -24 24 -7 0 -19 7 -26 15 -7 8 -21 15 -32 15 -15 0 -17 3 -8 19 16 32 12
115 -10 162 -11 24 -20 51 -20 60 0 22 118 153 142 157 10 2 18 8 18 13 0 5 8
4 19 -3 14 -9 27 -8 60 5 23 10 51 17 64 17 12 0 31 7 41 15 11 8 27 15 37 15
9 0 27 9 40 20 28 23 41 24 57 8z m-261 -773 c0 -8 -4 -12 -9 -9 -5 3 -6 10
-3 15 9 13 12 11 12 -6z"/>
</g>
</svg>
